PathFileType	4	(X/Y/Z)	12_1_20_p0_0-142_filt_butterworth.trc
DataRate	CameraRate	NumFrames	NumMarkers	Units	OrigDataRate	OrigDataStartFrame	OrigNumFrames
56.0	56.0	6	27	m	56.0	35	142
Frame#	Time	RHip			RKnee			RAnkle			RBigToe			RSmallToe			RHeel			LHip			LKnee			LAnkle			LBigToe			LSmallToe			LHeel			Neck			Head			Nose			RShoulder			RElbow			RWrist			RThumb			RIndex			RPinky			LShoulder			LElbow			LWrist			LThumb			LIndex			LPinky			
		X1	Y1	Z1	X2	Y2	Z2	X3	Y3	Z3	X4	Y4	Z4	X5	Y5	Z5	X6	Y6	Z6	X7	Y7	Z7	X8	Y8	Z8	X9	Y9	Z9	X10	Y10	Z10	X11	Y11	Z11	X12	Y12	Z12	X13	Y13	Z13	X14	Y14	Z14	X15	Y15	Z15	X16	Y16	Z16	X17	Y17	Z17	X18	Y18	Z18	X19	Y19	Z19	X20	Y20	Z20	X21	Y21	Z21	X22	Y22	Z22	X23	Y23	Z23	X24	Y24	Z24	X25	Y25	Z25	X26	Y26	Z26	X27	Y27	Z27	
35	0.625	0.424683370315633	0.9710867876723488	0.4968876429365052	0.46556980019302074	0.511707693934471	0.5274983463530288	0.488251826156215	0.09048445185923713	0.6014065017657679	0.4753769787977934	0.12811749264502867	0.3617603034760677	0.5361110655545939	0.1237329985033228	0.4084528939325159	0.4758472939132404	0.02074636318347778	0.636930618757949	0.22725895236876298	0.9354147030352564	0.49785230427721816	0.26689823281747777	0.4822930090093136	0.5230289917566555	0.3073266714609598	0.1045517986885586	0.5572727916136808	0.33314436595195485	0.09407081080307762	0.38250644103437514	0.25375824206670555	0.1029591509523142	0.40509662075991876	0.32233913055050323	0.05253719153055769	0.5886057881669685	0.29490151795826813	1.513760185320693	0.48559227711232994	0.29171307801565327	1.7570346180094647	0.4900584855426492	0.2949139950206613	1.6440914662162847	0.3918936784618194	0.45407677814896064	1.4232308971920065	0.5096661883076706	0.493049897614679	1.187170093864728	0.49185505560903137	0.3826448095959831	1.0115320145339641	0.3489892270959049	0.3424429476129116	0.9074903736823209	0.35529595464627567	0.32359431486786316	0.9074603257580179	0.3410063635803014	0.3062913607453158	0.9157552616760368	0.32821961699332797	0.14653789284099067	1.405001688044972	0.5121006810644566	0.13201527786656467	1.1649366886328254	0.43584939751701846	0.24433332080276032	0.9707961777724776	0.37680441986499164	0.34477982941879115	0.9613969706559532	0.33291430992364046	0.3544965959753847	0.9112163078670074	0.34838329512108257	0.30661124052309474	0.8878007793078808	0.3309248374840905	
36	0.6428571428571429	0.42497893690482763	0.9708585444835851	0.49592282600647863	0.4655564528830637	0.5120645621759732	0.5274738645117624	0.4882218708026621	0.09072796185391899	0.601328827847104	0.47510810692153216	0.12800120525452569	0.3608615761479753	0.5354741009009086	0.12509683015876838	0.4067501948624336	0.47587400078143666	0.02079126360202538	0.6369309426694243	0.22767823500780812	0.9349034001493353	0.4982411747184129	0.26689623553598346	0.48227573732811474	0.5229741617758129	0.3073238101282188	0.10449803166901125	0.557261404954647	0.3331891574741889	0.09403597361836563	0.3825273257912375	0.2537342295985985	0.10274263540657652	0.40514056872171883	0.3219139623571319	0.051120770517547445	0.5901293401661736	0.2949912624892515	1.5132449286819554	0.48550435695914596	0.2912374906684547	1.7563110533144006	0.4883239761937977	0.29446922674823345	1.643813651172711	0.3941487783163187	0.4540888070868817	1.4233074213101842	0.5097243088422757	0.49304605774233246	1.1861616846745497	0.4918037984990632	0.38085927529574376	1.0132192039843575	0.3473965371457853	0.33539467095156533	0.9141937727401932	0.3467223445309139	0.3190877940528061	0.9110439740758065	0.33773831774784263	0.3048969212906591	0.9178646447602025	0.32704455071731914	0.14657269877804338	1.4045864573148306	0.5118657972353581	0.1301214321320372	1.1660589179474097	0.43438264995742937	0.24181939165340519	0.9736792096186155	0.374479517078892	0.34178846160380216	0.9654021168704865	0.32863695215285377	0.3524691162794276	0.915753626282617	0.3420057947441085	0.30431677732166496	0.8887582616718622	0.32909380742720723	
37	0.6607142857142857	0.4252859054466477	0.970863109061775	0.4947946731958981	0.46555946584198515	0.5124713244599554	0.5274280333587549	0.4882020969171935	0.09098914028203041	0.6012465484145934	0.4749667869816404	0.1269164463954598	0.3609046436356845	0.5345562398084858	0.12623230179205724	0.4046246916053887	0.47590767547139756	0.020985230562976097	0.6369360392399354	0.22806012497843162	0.934481242619565	0.4985518930577652	0.2668940368982381	0.482260735008236	0.5229221798521883	0.3073212847399714	0.10444439523845003	0.5572512863544842	0.3329698769071531	0.0940430168534544	0.3824046377757586	0.25374139469588175	0.10274470018509702	0.4051566813669644	0.3213991797763908	0.04950490143486684	0.5919427721335098	0.2951051820218263	1.512631476903241	0.4853941629963453	0.2909810000743385	1.755614442610179	0.4873589035517294	0.2943259943373226	1.6438610952069512	0.3950765011541401	0.4541029961170123	1.423230548368459	0.509777562464333	0.49310761961015365	1.1851469060847717	0.4916663980949848	0.3792848990875641	1.014200693026083	0.34694561130251456	0.3283184196813873	0.9212299816787899	0.33851204121855755	0.3151702001391396	0.9146551683566433	0.33401133398716315	0.30359374306418874	0.9191830336201556	0.3267141455166901	0.14659845592932302	1.4040574979932041	0.5115214963057454	0.12803725083727285	1.1668721001712368	0.4339582311638273	0.23912811222203934	0.9766479560089241	0.3720000969812636	0.33888518715677596	0.9689139592267365	0.32668924609695527	0.3499549522336032	0.9194769852070133	0.33733072288695487	0.30254180818621496	0.8894251349367975	0.3281792151046967	
38	0.6785714285714286	0.4256134982113421	0.9710995268688971	0.49350638214710013	0.4655752392391346	0.5128661466811297	0.5273660245066687	0.4882173455500797	0.09118739980339122	0.6011710923548278	0.47494593221276904	0.12554960688717895	0.3612855418511374	0.5336060339092145	0.12735024304624815	0.40230108264329606	0.4759463083483598	0.02131069673669297	0.636931081008867	0.2284019900233223	0.934160763351602	0.4986352774274454	0.2668915196734232	0.48224798733329927	0.5228776004337723	0.3073190225574241	0.10439937162118962	0.5572422311976097	0.3324500607346309	0.09410269914835337	0.3821222870823276	0.2537540266966955	0.10279312570577613	0.4051506100774338	0.3208878847683192	0.04793541705204894	0.5937609942231182	0.29522150079229603	1.51197229432721	0.48526955652529047	0.29094252603364507	1.7550244855768924	0.4871832058991623	0.29449449439464986	1.6440836325551877	0.3943480336117206	0.45412285850256107	1.4229072499858886	0.5098203081800262	0.4931682913458019	1.1843867622759128	0.49148975343684226	0.378079521161077	1.014640286672123	0.3474045494933159	0.322106923557503	0.9277971730021912	0.3316401113563141	0.3121776355553751	0.9178016547806271	0.3303873536421678	0.30234589775361687	0.9197346336061614	0.32694746688728704	0.14666374028296553	1.40344047103932	0.5112938117199564	0.12606715520067482	1.1672504408522641	0.4346303199020623	0.23659400734554537	0.9793779093642107	0.3694434409453379	0.3363214602154464	0.9715608564289299	0.32708312899887415	0.3471998724859501	0.9220873271968799	0.33466662507745026	0.30126608339014793	0.8898009316461498	0.32792184174864314	
39	0.6964285714285714	0.42597437336533217	0.9714723400318438	0.49205657537372227	0.4655944568517691	0.5132260519137617	0.5272995944039407	0.48827991743347104	0.09127483049983338	0.6010961195343637	0.4748854860941632	0.12440231722268555	0.361906497524904	0.5327781035434977	0.12854460589922595	0.399953501392353	0.47597754553815874	0.021710398263237164	0.6369077268481901	0.2286805944566674	0.933939332545506	0.49842456276400954	0.2668883437872016	0.48223830169546683	0.522842558586304	0.30731693031870194	0.10436712157713433	0.5572338968314066	0.33182289446615454	0.09419788138369298	0.381786249457617	0.25375851184818093	0.10281192563014359	0.4051332648923943	0.32047067649657474	0.04667411217733644	0.5953362106798926	0.2953240947190986	1.5112677408677642	0.48513587859713236	0.29102507856373394	1.7546702373215448	0.4873914483489962	0.29495893302696735	1.6444061593936092	0.3922116757868137	0.4541490860374323	1.4223509842236324	0.5098438164472721	0.4932875178863214	1.1840050277605374	0.49139035382929286	0.37724831115773816	1.0148752206133136	0.348061177010983	0.31740442800153523	0.9334079403589453	0.32661514305587364	0.31026243524388386	0.9201691679217601	0.3274843188529526	0.30107828721192276	0.9197633507054709	0.32734987000743476	0.14676020343302865	1.4028219405707905	0.5111808619213875	0.12453222763189117	1.1670068964231424	0.4363065401804684	0.23447523065847897	0.9815122874648813	0.36711810341170165	0.3341754719972013	0.9732035573063865	0.3290233061583524	0.3444991240794125	0.9237792886296929	0.3334118123951724	0.3003325296794903	0.8899937557054284	0.32788398135670055	
40	0.7142857142857143	0.42635377340526764	0.9719212964732273	0.4905215492731497	0.4656119179758257	0.5135636878416698	0.5272325854162297	0.4883847496211244	0.09120935460058113	0.6010156333531461	0.4746529788390459	0.1235215052337072	0.3631144078878554	0.5321817442855684	0.12969885042563037	0.39783777045140617	0.4759926321149728	0.022103937151636475	0.6368769585565747	0.2289007644711308	0.9338501121350958	0.49792505583975627	0.266884559646303	0.4822329973409214	0.5228180557864511	0.30731475195068797	0.10434535475496076	0.5572263843644464	0.3313197873967748	0.09430948651712996	0.3815180841321195	0.2537560689193228	0.10281797164988216	0.4051144538985126	0.3201633720615588	0.04577626911145303	0.5966385268279014	0.29540998170683563	1.5105309746575126	0.4850221013139771	0.2910768034046378	1.754674583036206	0.4874107525259265	0.29564057405988897	1.6447858589172537	0.3893310317059016	0.4541794428344309	1.421633844192905	0.5098387318659869	0.49349982500450285	1.1838957461044337	0.49141826000314537	0.3766505463440042	1.0150727484034114	0.3483360691143241	0.31464661331508476	0.9374776553409675	0.323637692293156	0.3093494084799589	0.9216488787002795	0.32571580004019035	0.2998458896708341	0.919497440136419	0.32771664310690546	0.14687086253743295	1.4023067229848654	0.5111399703197119	0.12354394619031375	1.1661882981279454	0.4385116593082761	0.2330062682630786	0.9827341751150303	0.36541250665680397	0.3324614485201226	0.9738154510857262	0.33140191885216647	0.3422528310604107	0.9247849130112463	0.33285853340587623	0.29963717477827945	0.8900585447061662	0.3278199107707772	
